<mxfile host="app.diagrams.net" agent="Mozilla/5.0 (Windows NT 10.0; Win64; x64) AppleWebKit/537.36 (KHTML, like Gecko) Chrome/141.0.0.0 Safari/537.36 Edg/141.0.0.0" version="28.2.7">
  <diagram name="第 1 页" id="bellSP-NZAF3xLZcuKNK">
    <mxGraphModel dx="1418" dy="794" grid="1" gridSize="10" guides="1" tooltips="1" connect="1" arrows="1" fold="1" page="1" pageScale="1" pageWidth="827" pageHeight="1169" math="0" shadow="0">
      <root>
        <mxCell id="0" />
        <mxCell id="1" parent="0" />
        <mxCell id="ZnsVAsq8M4SEHds0zJie-1" value="" style="rounded=1;whiteSpace=wrap;html=1;" vertex="1" parent="1">
          <mxGeometry x="150" y="260" width="710" height="50" as="geometry" />
        </mxCell>
        <mxCell id="ZnsVAsq8M4SEHds0zJie-2" value="&lt;font style=&quot;font-size: 18px;&quot;&gt;param_1&lt;/font&gt;" style="rounded=1;whiteSpace=wrap;html=1;strokeWidth=2;fillWeight=4;hachureGap=8;hachureAngle=45;fillColor=#fff2cc;sketch=1;strokeColor=#d6b656;" vertex="1" parent="1">
          <mxGeometry x="150" y="260" width="270" height="50" as="geometry" />
        </mxCell>
        <mxCell id="ZnsVAsq8M4SEHds0zJie-3" value="&lt;font style=&quot;font-size: 18px;&quot;&gt;padding&lt;/font&gt;" style="rounded=1;whiteSpace=wrap;html=1;strokeWidth=2;fillWeight=4;hachureGap=8;hachureAngle=45;fillColor=#e1d5e7;sketch=1;strokeColor=#9673a6;" vertex="1" parent="1">
          <mxGeometry x="420" y="260" width="80" height="50" as="geometry" />
        </mxCell>
        <mxCell id="ZnsVAsq8M4SEHds0zJie-4" value="&lt;font style=&quot;font-size: 18px;&quot;&gt;param_2&lt;/font&gt;" style="rounded=1;whiteSpace=wrap;html=1;strokeWidth=2;fillWeight=4;hachureGap=8;hachureAngle=45;fillColor=#fff2cc;sketch=1;strokeColor=#d6b656;" vertex="1" parent="1">
          <mxGeometry x="500" y="260" width="180" height="50" as="geometry" />
        </mxCell>
        <mxCell id="ZnsVAsq8M4SEHds0zJie-6" value="&lt;font style=&quot;font-size: 18px;&quot;&gt;param_3&lt;/font&gt;" style="rounded=1;whiteSpace=wrap;html=1;strokeWidth=2;fillWeight=4;hachureGap=8;hachureAngle=45;fillColor=#fff2cc;sketch=1;strokeColor=#d6b656;" vertex="1" parent="1">
          <mxGeometry x="680" y="260" width="100" height="50" as="geometry" />
        </mxCell>
        <mxCell id="ZnsVAsq8M4SEHds0zJie-7" value="&lt;font style=&quot;font-size: 18px;&quot;&gt;padding&lt;/font&gt;" style="rounded=1;whiteSpace=wrap;html=1;strokeWidth=2;fillWeight=4;hachureGap=8;hachureAngle=45;fillColor=#e1d5e7;sketch=1;strokeColor=#9673a6;" vertex="1" parent="1">
          <mxGeometry x="780" y="260" width="80" height="50" as="geometry" />
        </mxCell>
        <mxCell id="ZnsVAsq8M4SEHds0zJie-8" value="" style="shape=curlyBracket;whiteSpace=wrap;html=1;rounded=1;labelPosition=left;verticalLabelPosition=middle;align=right;verticalAlign=middle;rotation=90;" vertex="1" parent="1">
          <mxGeometry x="275" y="95" width="20" height="270" as="geometry" />
        </mxCell>
        <mxCell id="ZnsVAsq8M4SEHds0zJie-9" value="" style="shape=curlyBracket;whiteSpace=wrap;html=1;rounded=1;labelPosition=left;verticalLabelPosition=middle;align=right;verticalAlign=middle;rotation=-90;" vertex="1" parent="1">
          <mxGeometry x="450" y="300" width="20" height="80" as="geometry" />
        </mxCell>
        <mxCell id="ZnsVAsq8M4SEHds0zJie-10" value="&lt;font style=&quot;font-size: 18px;&quot;&gt;&lt;b&gt;size=480&lt;/b&gt;&lt;/font&gt;" style="text;html=1;whiteSpace=wrap;strokeColor=none;fillColor=none;align=center;verticalAlign=middle;rounded=0;" vertex="1" parent="1">
          <mxGeometry x="255" y="190" width="60" height="30" as="geometry" />
        </mxCell>
        <mxCell id="ZnsVAsq8M4SEHds0zJie-11" value="&lt;font style=&quot;font-size: 18px;&quot;&gt;&lt;b&gt;size=32&lt;/b&gt;&lt;/font&gt;" style="text;html=1;whiteSpace=wrap;strokeColor=none;fillColor=none;align=center;verticalAlign=middle;rounded=0;" vertex="1" parent="1">
          <mxGeometry x="430" y="365" width="60" height="30" as="geometry" />
        </mxCell>
        <mxCell id="ZnsVAsq8M4SEHds0zJie-12" value="" style="shape=curlyBracket;whiteSpace=wrap;html=1;rounded=1;labelPosition=left;verticalLabelPosition=middle;align=right;verticalAlign=middle;rotation=-90;" vertex="1" parent="1">
          <mxGeometry x="315" y="242" width="20" height="342.5" as="geometry" />
        </mxCell>
        <mxCell id="ZnsVAsq8M4SEHds0zJie-13" value="&lt;font style=&quot;font-size: 18px;&quot;&gt;&lt;b&gt;size=512&lt;/b&gt;&lt;/font&gt;" style="text;html=1;whiteSpace=wrap;strokeColor=none;fillColor=none;align=center;verticalAlign=middle;rounded=0;" vertex="1" parent="1">
          <mxGeometry x="295" y="430" width="60" height="30" as="geometry" />
        </mxCell>
        <mxCell id="ZnsVAsq8M4SEHds0zJie-15" value="" style="shape=curlyBracket;whiteSpace=wrap;html=1;rounded=1;labelPosition=left;verticalLabelPosition=middle;align=right;verticalAlign=middle;rotation=90;" vertex="1" parent="1">
          <mxGeometry x="577.5" y="137.5" width="20" height="185" as="geometry" />
        </mxCell>
        <mxCell id="ZnsVAsq8M4SEHds0zJie-16" value="&lt;font style=&quot;font-size: 18px;&quot;&gt;&lt;b&gt;size=256&lt;/b&gt;&lt;/font&gt;" style="text;html=1;whiteSpace=wrap;strokeColor=none;fillColor=none;align=center;verticalAlign=middle;rounded=0;" vertex="1" parent="1">
          <mxGeometry x="557.5" y="190" width="60" height="30" as="geometry" />
        </mxCell>
        <mxCell id="ZnsVAsq8M4SEHds0zJie-17" value="" style="shape=curlyBracket;whiteSpace=wrap;html=1;rounded=1;labelPosition=left;verticalLabelPosition=middle;align=right;verticalAlign=middle;rotation=90;" vertex="1" parent="1">
          <mxGeometry x="718.75" y="178.75" width="20" height="102.5" as="geometry" />
        </mxCell>
        <mxCell id="ZnsVAsq8M4SEHds0zJie-18" value="&lt;font style=&quot;font-size: 18px;&quot;&gt;&lt;b&gt;size=156&lt;/b&gt;&lt;/font&gt;" style="text;html=1;whiteSpace=wrap;strokeColor=none;fillColor=none;align=center;verticalAlign=middle;rounded=0;" vertex="1" parent="1">
          <mxGeometry x="698.75" y="190" width="60" height="30" as="geometry" />
        </mxCell>
        <mxCell id="ZnsVAsq8M4SEHds0zJie-19" value="" style="shape=curlyBracket;whiteSpace=wrap;html=1;rounded=1;labelPosition=left;verticalLabelPosition=middle;align=right;verticalAlign=middle;rotation=-90;" vertex="1" parent="1">
          <mxGeometry x="810" y="300" width="20" height="80" as="geometry" />
        </mxCell>
        <mxCell id="ZnsVAsq8M4SEHds0zJie-20" value="&lt;font style=&quot;font-size: 18px;&quot;&gt;&lt;b&gt;size=100&lt;/b&gt;&lt;/font&gt;" style="text;html=1;whiteSpace=wrap;strokeColor=none;fillColor=none;align=center;verticalAlign=middle;rounded=0;" vertex="1" parent="1">
          <mxGeometry x="790" y="365" width="60" height="30" as="geometry" />
        </mxCell>
        <mxCell id="ZnsVAsq8M4SEHds0zJie-21" value="" style="shape=curlyBracket;whiteSpace=wrap;html=1;rounded=1;labelPosition=left;verticalLabelPosition=middle;align=right;verticalAlign=middle;rotation=-90;" vertex="1" parent="1">
          <mxGeometry x="757.75" y="324.25" width="20" height="178" as="geometry" />
        </mxCell>
        <mxCell id="ZnsVAsq8M4SEHds0zJie-22" value="&lt;font style=&quot;font-size: 18px;&quot;&gt;&lt;b&gt;size=256&lt;/b&gt;&lt;/font&gt;" style="text;html=1;whiteSpace=wrap;strokeColor=none;fillColor=none;align=center;verticalAlign=middle;rounded=0;" vertex="1" parent="1">
          <mxGeometry x="737.75" y="430" width="60" height="30" as="geometry" />
        </mxCell>
      </root>
    </mxGraphModel>
  </diagram>
</mxfile>
